<?xml version="1.0" encoding="utf-8"?>
<!-- Generator: Adobe Illustrator 24.1.0, SVG Export Plug-In . SVG Version: 6.00 Build 0)  -->
<svg version="1.1" id="Layer_1" xmlns="http://www.w3.org/2000/svg" xmlns:xlink="http://www.w3.org/1999/xlink" x="0px" y="0px"
	 viewBox="0 0 422.6 78.3" style="enable-background:new 0 0 422.6 78.3;" xml:space="preserve">
<style type="text/css">
	.st0{fill:#F68841;}
	.st1{fill:#129B63;}
	.st2{fill:none;}
	.st3{fill:#878787;}
	.st4{font-family:'Montserrat-Medium';}
	.st5{font-size:21px;}
</style>
<g>
	<path class="st0" d="M57.5,8.1c-4.3,0-8.3,1.5-11.5,4l0,0l0,0l-2.2,2.3L43.2,15l-0.6,0.6l-0.2,0.2l-2.5,2.6l-1.6,1.6L31,27.5
		c0.8,0.8,2.7,2.1,6.2,0.7c0.2-0.1,0.4-0.2,0.6-0.3c0.1,0,0.1-0.1,0.2-0.1c0.3-0.1,0.5-0.3,0.8-0.5c2.1-1.3,4.7-3.9,7.8-7.1
		c0.2-0.2,0.4-0.4,0.5-0.5c0.2-0.2,0.4-0.4,0.6-0.6c0.2-0.2,0.4-0.4,0.6-0.6l0,0l0.2,0.2l0.4,0.4l0,0c0.1,0.1,0.2,0.2,0.3,0.2
		l1.8,1.6c0,0,0.1,0.1,0.1,0.1c0.1,0.1,0.2,0.2,1.2,1.2c3.5,3.2,12.2,11.8,12.3,11.9l6,5.9c3.4-3.4,5.5-8.1,5.5-13.2
		C76.1,16.5,67.8,8.1,57.5,8.1z"/>
	<path d="M70.5,40.2C70.5,40.1,70.6,40.1,70.5,40.2L70.4,40C70.4,40.1,70.5,40.1,70.5,40.2z"/>
	<path class="st1" d="M69.6,42.1c-0.1-0.3-0.2-0.5-0.3-0.8c-0.2-0.3-0.4-0.6-0.6-0.9c-0.3-0.3-2.4-2.4-5.2-5.1l0.1,0
		c0,0-8.8-8.6-12.3-11.9c-0.6-0.6-1-1-1.2-1.1c0,0-0.1-0.1-0.1-0.1c-0.5-0.4-1-0.9-1.5-1.4c-0.2,0.2-0.4,0.4-0.6,0.6
		c-3.6,3.6-6.4,6.5-8.9,7.8c-0.1,0.1-0.3,0.2-0.4,0.2c-0.1,0.1-0.2,0.1-0.3,0.2c-0.3,0.1-0.5,0.2-0.8,0.3c-1.2,0.4-2.2,0.6-3.1,0.6
		c-1.2,0-2.2-0.3-2.9-0.6c-1.5-0.8-2.2-1.9-2.3-2l-0.3-0.5l12.4-12.7l0.1-0.1c0,0,0,0,0,0c-1.4-1.3-2.6-2.3-3.4-2.9
		c-3-2.5-6.8-4-11-4c-9.6,0-17.4,7.8-17.4,17.4c0,3.6,1.1,6.9,3,9.7c1.3,2,2.9,3.8,4.7,5.3c1.5-1.5,3.5-3.4,4-3.9
		c1-1,2.4-1.5,3.8-1.5c3.1,0,5.7,2.5,5.7,5.6c0,0.5-0.1,1-0.2,1.5c0.4-0.1,0.8-0.1,1.2-0.1c3.1,0,5.7,2.5,5.7,5.6
		c0,0.6-0.1,1.1-0.3,1.7c0.5-0.2,1.1-0.3,1.7-0.3c3.1,0,5.7,2.5,5.7,5.6c0,0.6-0.1,1.3-0.3,1.9c0,0,0.1,0.1,0.1,0.1
		c0.4-0.1,0.8-0.1,1.2-0.1c2.9,0,5.3,2.2,5.6,5c2.3,0,4.2-1.9,4.2-4.2c0-1.1-0.4-2.1-1.1-2.9c-0.5-0.6-8.6-8.5-13.9-13.6l1-1
		c5.2,5.1,13.5,13.2,14.1,13.7c0.7,0.6,1.7,1,2.7,1c2.3,0,4.2-1.9,4.2-4.2c0-1.1-0.4-2.1-1.1-2.9c0,0-0.1-0.1-0.1-0.2
		c-0.2-0.2-0.4-0.4-0.7-0.7c-0.2-0.2-0.5-0.5-0.8-0.7c-2.7-2.7-8.3-8.1-12.3-12l1-1c4.1,4,10.2,10,13.1,12.8
		c0.3,0.3,0.5,0.5,0.7,0.7c0.3,0.3,0.6,0.6,0.7,0.7c0,0,0.1,0,0.1,0.1c0.7,0.6,1.7,1,2.7,1c2.3,0,4.2-1.9,4.2-4.2c0-0.1,0-0.2,0-0.2
		C69.7,42.7,69.6,42.4,69.6,42.1z"/>
	<path class="st0" d="M23.6,47.3c0.8-0.8,1.7-1.7,2.5-2.5c0.3-0.3,0.6-0.6,0.9-0.8c0.1-0.1,0.1-0.1,0.2-0.2c0.2-0.3,0.5-0.5,0.6-0.7
		c0.1-0.2,0.3-0.3,0.3-0.4c0.6-0.7,0.9-1.6,0.9-2.5c0-2.2-1.8-4-4-4c-1,0-2,0.4-2.7,1.1c-0.5,0.5-2.3,2.2-3.7,3.7
		c-0.2,0.2-0.4,0.4-0.6,0.6c-0.2,0.2-0.4,0.4-0.6,0.6c-0.3,0.3-0.4,0.5-0.6,0.6c-0.6,0.7-0.9,1.6-0.9,2.5c0,2.2,1.8,4,4,4
		c1.1,0,2.1-0.4,2.8-1.2C23,47.9,23.2,47.6,23.6,47.3z"/>
	<path class="st0" d="M34.8,49.7c0.1-0.1,0.1-0.2,0.2-0.2c0.2-0.2,0.3-0.5,0.4-0.8c0.1-0.3,0.2-0.6,0.3-0.9c0-0.2,0.1-0.4,0.1-0.6
		c0-2.2-1.8-4-4-4c-0.3,0-0.5,0-0.7,0.1c-0.5,0.1-0.9,0.3-1.3,0.5c-0.2,0.1-0.5,0.3-0.6,0.5c-0.1,0.1-0.3,0.2-0.4,0.4
		c-0.1,0.1-0.1,0.1-0.2,0.2c-0.9,0.9-2.4,2.4-3.5,3.5c-0.6,0.6-1,1.1-1.2,1.3c-0.6,0.7-0.9,1.6-0.9,2.5c0,2.2,1.8,4,4,4
		c1.1,0,2.1-0.4,2.8-1.2C30.2,54.4,34.1,50.6,34.8,49.7z"/>
	<path class="st0" d="M41.8,56.8c0.1-0.1,0.2-0.2,0.3-0.3c0.2-0.2,0.3-0.5,0.4-0.8c0.1-0.3,0.2-0.6,0.2-0.9c0-0.2,0-0.3,0-0.5
		c0-2.2-1.8-4-4-4c-0.2,0-0.4,0-0.6,0c-0.3,0-0.6,0.1-0.9,0.3c-0.3,0.1-0.5,0.3-0.8,0.4c-0.1,0.1-0.3,0.2-0.4,0.3
		c-0.8,0.7-4.7,4.6-5.4,5.5c-0.6,0.7-0.9,1.6-0.9,2.5c0,2.2,1.8,4,4,4c1.1,0,2.1-0.4,2.8-1.2C37.2,61.4,41.1,57.7,41.8,56.8z"/>
	<path class="st0" d="M49.3,60.7c-0.4-1.6-1.8-2.8-3.5-3c-0.1,0-0.3,0-0.4,0c-0.3,0-0.5,0-0.8,0.1c-0.3,0.1-0.6,0.2-0.9,0.3
		c-0.4,0.2-0.8,0.4-1.1,0.7c-0.8,0.7-4.7,4.6-5.4,5.5c-0.6,0.7-0.9,1.6-0.9,2.5c0,2.2,1.8,4,4,4c1.1,0,2.1-0.4,2.8-1.2
		s4.6-4.5,5.3-5.4c0.4-0.5,0.7-1.1,0.8-1.7c0.1-0.3,0.1-0.5,0.1-0.8c0,0,0,0,0,0C49.4,61.3,49.4,61,49.3,60.7z"/>
</g>
<polygon class="st2" points="1100.7,366.1 1102.8,366.1 1102.8,366.1 "/>
<text transform="matrix(1 0 0 1 1007.4414 450.8232)" style="font-family:'ArialMT'; font-size:12px;">sdfsdfsdfsdfsdf</text>
<text transform="matrix(1 0 0 1 79.0884 45.5585)" class="st3 st4 st5">COVID COMMUNITY RESPONSE</text>
</svg>
